<mxfile host="Electron" modified="2023-09-16T22:56:41.126Z" agent="Mozilla/5.0 (Macintosh; Intel Mac OS X 10_15_7) AppleWebKit/537.36 (KHTML, like Gecko) draw.io/21.7.5 Chrome/114.0.5735.289 Electron/25.8.1 Safari/537.36" etag="uk85fAECqbumEYunVMbV" version="21.7.5" type="device" pages="2">
  <diagram id="4t4rUI82VS745KYKMyhx" name="DRS-overview">
    <mxGraphModel dx="1876" dy="1758" grid="1" gridSize="10" guides="1" tooltips="1" connect="1" arrows="1" fold="1" page="1" pageScale="1" pageWidth="850" pageHeight="1100" math="0" shadow="0">
      <root>
        <mxCell id="0" />
        <mxCell id="1" parent="0" />
        <mxCell id="YhEHhiqGyK73vUyh_O-l-1" value="" style="shape=image;verticalLabelPosition=bottom;labelBackgroundColor=default;verticalAlign=top;aspect=fixed;imageAspect=0;image=https://docs.aws.amazon.com/images/drs/latest/userguide/images/drs-general-arc.png;" parent="1" vertex="1">
          <mxGeometry x="-140" y="-130" width="1169" height="766" as="geometry" />
        </mxCell>
      </root>
    </mxGraphModel>
  </diagram>
  <diagram name="blogpost infrastructure" id="ba4QdMtcpVk9XobIyXDd">
    <mxGraphModel dx="1026" dy="1758" grid="1" gridSize="10" guides="1" tooltips="1" connect="1" arrows="1" fold="1" page="1" pageScale="1" pageWidth="850" pageHeight="1100" math="0" shadow="0">
      <root>
        <mxCell id="0" />
        <mxCell id="1" parent="0" />
        <mxCell id="jePzmlh3RAr5rvSsIHxn-2" value="AWS Cloud" style="sketch=0;outlineConnect=0;gradientColor=none;html=1;whiteSpace=wrap;fontSize=12;fontStyle=0;shape=mxgraph.aws4.group;grIcon=mxgraph.aws4.group_aws_cloud;strokeColor=#AAB7B8;fillColor=none;verticalAlign=top;align=left;spacingLeft=30;fontColor=#AAB7B8;dashed=0;" parent="1" vertex="1">
          <mxGeometry x="30" y="20" width="560" height="500" as="geometry" />
        </mxCell>
        <mxCell id="jePzmlh3RAr5rvSsIHxn-3" value="AWS Account - &lt;b&gt;source&lt;/b&gt;(simulates on-prem env)" style="points=[[0,0],[0.25,0],[0.5,0],[0.75,0],[1,0],[1,0.25],[1,0.5],[1,0.75],[1,1],[0.75,1],[0.5,1],[0.25,1],[0,1],[0,0.75],[0,0.5],[0,0.25]];outlineConnect=0;gradientColor=none;html=1;whiteSpace=wrap;fontSize=12;fontStyle=0;container=1;pointerEvents=0;collapsible=0;recursiveResize=0;shape=mxgraph.aws4.group;grIcon=mxgraph.aws4.group_account;strokeColor=#CD2264;fillColor=none;verticalAlign=top;align=left;spacingLeft=30;fontColor=#CD2264;dashed=0;" parent="1" vertex="1">
          <mxGeometry x="50" y="70" width="510" height="430" as="geometry" />
        </mxCell>
        <mxCell id="jePzmlh3RAr5rvSsIHxn-4" value="VPC" style="points=[[0,0],[0.25,0],[0.5,0],[0.75,0],[1,0],[1,0.25],[1,0.5],[1,0.75],[1,1],[0.75,1],[0.5,1],[0.25,1],[0,1],[0,0.75],[0,0.5],[0,0.25]];outlineConnect=0;gradientColor=none;html=1;whiteSpace=wrap;fontSize=12;fontStyle=0;container=1;pointerEvents=0;collapsible=0;recursiveResize=0;shape=mxgraph.aws4.group;grIcon=mxgraph.aws4.group_vpc;strokeColor=#248814;fillColor=none;verticalAlign=top;align=left;spacingLeft=30;fontColor=#AAB7B8;dashed=0;" parent="jePzmlh3RAr5rvSsIHxn-3" vertex="1">
          <mxGeometry x="20" y="70" width="470" height="310" as="geometry" />
        </mxCell>
        <mxCell id="jePzmlh3RAr5rvSsIHxn-9" style="edgeStyle=orthogonalEdgeStyle;rounded=0;orthogonalLoop=1;jettySize=auto;html=1;startArrow=classic;startFill=1;" parent="jePzmlh3RAr5rvSsIHxn-4" source="jePzmlh3RAr5rvSsIHxn-6" target="jePzmlh3RAr5rvSsIHxn-8" edge="1">
          <mxGeometry relative="1" as="geometry" />
        </mxCell>
        <mxCell id="jePzmlh3RAr5rvSsIHxn-8" value="SQLServer.myprivatedomain.aws&lt;br&gt;database" style="outlineConnect=0;dashed=0;verticalLabelPosition=bottom;verticalAlign=top;align=center;html=1;shape=mxgraph.aws3.generic_database;fillColor=#7D7C7C;gradientColor=none;" parent="jePzmlh3RAr5rvSsIHxn-4" vertex="1">
          <mxGeometry x="316" y="12.75" width="49.5" height="64.5" as="geometry" />
        </mxCell>
        <mxCell id="jePzmlh3RAr5rvSsIHxn-20" value="" style="group" parent="jePzmlh3RAr5rvSsIHxn-4" vertex="1" connectable="0">
          <mxGeometry x="160" y="182" width="185" height="58" as="geometry" />
        </mxCell>
        <mxCell id="jePzmlh3RAr5rvSsIHxn-14" value="" style="sketch=0;pointerEvents=1;shadow=0;dashed=0;html=1;strokeColor=none;fillColor=#505050;labelPosition=center;verticalLabelPosition=bottom;verticalAlign=top;outlineConnect=0;align=center;shape=mxgraph.office.servers.server_generic;flipH=0;" parent="jePzmlh3RAr5rvSsIHxn-20" vertex="1">
          <mxGeometry width="27" height="52" as="geometry" />
        </mxCell>
        <mxCell id="jePzmlh3RAr5rvSsIHxn-15" value="Application Servers, clients, etc" style="sketch=0;pointerEvents=1;shadow=0;dashed=0;html=1;strokeColor=none;fillColor=#505050;labelPosition=center;verticalLabelPosition=bottom;verticalAlign=top;outlineConnect=0;align=center;shape=mxgraph.office.servers.server_generic;flipH=0;" parent="jePzmlh3RAr5rvSsIHxn-20" vertex="1">
          <mxGeometry x="79" width="27" height="52" as="geometry" />
        </mxCell>
        <mxCell id="jePzmlh3RAr5rvSsIHxn-16" value="" style="sketch=0;pointerEvents=1;shadow=0;dashed=0;html=1;strokeColor=none;fillColor=#505050;labelPosition=center;verticalLabelPosition=bottom;verticalAlign=top;outlineConnect=0;align=center;shape=mxgraph.office.servers.server_generic;flipH=0;" parent="jePzmlh3RAr5rvSsIHxn-20" vertex="1">
          <mxGeometry x="158" width="27" height="52" as="geometry" />
        </mxCell>
        <mxCell id="jePzmlh3RAr5rvSsIHxn-50" value="&lt;br&gt;&lt;br&gt;&lt;br&gt;&lt;br&gt;&lt;br&gt;&lt;br&gt;&lt;br&gt;&lt;br&gt;&lt;br&gt;&lt;br&gt;&lt;br&gt;&lt;br&gt;&lt;br&gt;&lt;br&gt;&lt;br&gt;&lt;br&gt;&lt;br&gt;&lt;br&gt;&lt;br&gt;&lt;br&gt;&lt;br&gt;&lt;br&gt;&lt;br&gt;&lt;br&gt;&lt;br&gt;&lt;br&gt;&lt;br&gt;&lt;br&gt;&lt;br&gt;&lt;br&gt;&lt;br&gt;&lt;br&gt;&lt;br&gt;&lt;br&gt;&lt;br&gt;&lt;br&gt;&lt;br&gt;&lt;br&gt;" style="sketch=0;points=[[0,0,0],[0.25,0,0],[0.5,0,0],[0.75,0,0],[1,0,0],[0,1,0],[0.25,1,0],[0.5,1,0],[0.75,1,0],[1,1,0],[0,0.25,0],[0,0.5,0],[0,0.75,0],[1,0.25,0],[1,0.5,0],[1,0.75,0]];outlineConnect=0;fontColor=#232F3E;gradientColor=#60A337;gradientDirection=north;fillColor=#277116;strokeColor=#ffffff;dashed=0;verticalLabelPosition=bottom;verticalAlign=top;align=center;html=1;fontSize=12;fontStyle=0;aspect=fixed;shape=mxgraph.aws4.resourceIcon;resIcon=mxgraph.aws4.cloudendure_disaster_recovery;" parent="jePzmlh3RAr5rvSsIHxn-20" vertex="1">
          <mxGeometry x="20" y="38" width="20" height="20" as="geometry" />
        </mxCell>
        <mxCell id="jePzmlh3RAr5rvSsIHxn-51" value="&lt;br&gt;&lt;br&gt;&lt;br&gt;&lt;br&gt;&lt;br&gt;&lt;br&gt;&lt;br&gt;&lt;br&gt;&lt;br&gt;&lt;br&gt;&lt;br&gt;&lt;br&gt;&lt;br&gt;&lt;br&gt;&lt;br&gt;&lt;br&gt;&lt;br&gt;&lt;br&gt;&lt;br&gt;&lt;br&gt;&lt;br&gt;&lt;br&gt;&lt;br&gt;&lt;br&gt;&lt;br&gt;&lt;br&gt;&lt;br&gt;&lt;br&gt;&lt;br&gt;&lt;br&gt;&lt;br&gt;&lt;br&gt;&lt;br&gt;&lt;br&gt;&lt;br&gt;&lt;br&gt;&lt;br&gt;&lt;br&gt;" style="sketch=0;points=[[0,0,0],[0.25,0,0],[0.5,0,0],[0.75,0,0],[1,0,0],[0,1,0],[0.25,1,0],[0.5,1,0],[0.75,1,0],[1,1,0],[0,0.25,0],[0,0.5,0],[0,0.75,0],[1,0.25,0],[1,0.5,0],[1,0.75,0]];outlineConnect=0;fontColor=#232F3E;gradientColor=#60A337;gradientDirection=north;fillColor=#277116;strokeColor=#ffffff;dashed=0;verticalLabelPosition=bottom;verticalAlign=top;align=center;html=1;fontSize=12;fontStyle=0;aspect=fixed;shape=mxgraph.aws4.resourceIcon;resIcon=mxgraph.aws4.cloudendure_disaster_recovery;" parent="jePzmlh3RAr5rvSsIHxn-20" vertex="1">
          <mxGeometry x="100" y="32" width="20" height="20" as="geometry" />
        </mxCell>
        <mxCell id="jePzmlh3RAr5rvSsIHxn-25" style="rounded=0;orthogonalLoop=1;jettySize=auto;html=1;startArrow=classic;startFill=1;" parent="jePzmlh3RAr5rvSsIHxn-4" source="jePzmlh3RAr5rvSsIHxn-15" target="jePzmlh3RAr5rvSsIHxn-8" edge="1">
          <mxGeometry relative="1" as="geometry">
            <mxPoint x="290" y="230" as="sourcePoint" />
          </mxGeometry>
        </mxCell>
        <mxCell id="jePzmlh3RAr5rvSsIHxn-26" style="rounded=0;orthogonalLoop=1;jettySize=auto;html=1;startArrow=classic;startFill=1;" parent="jePzmlh3RAr5rvSsIHxn-4" source="jePzmlh3RAr5rvSsIHxn-41" target="jePzmlh3RAr5rvSsIHxn-6" edge="1">
          <mxGeometry relative="1" as="geometry">
            <mxPoint x="291" y="240" as="sourcePoint" />
            <mxPoint x="340" y="93" as="targetPoint" />
          </mxGeometry>
        </mxCell>
        <mxCell id="jePzmlh3RAr5rvSsIHxn-6" value="AD.myprivatedomain.aws&lt;br&gt;AD services/DNS" style="sketch=0;pointerEvents=1;shadow=0;dashed=0;html=1;strokeColor=none;fillColor=#505050;labelPosition=center;verticalLabelPosition=bottom;verticalAlign=top;outlineConnect=0;align=center;shape=mxgraph.office.servers.server_generic;" parent="jePzmlh3RAr5rvSsIHxn-4" vertex="1">
          <mxGeometry x="100" y="18.75" width="27" height="52" as="geometry" />
        </mxCell>
        <mxCell id="jePzmlh3RAr5rvSsIHxn-7" value="" style="image;aspect=fixed;perimeter=ellipsePerimeter;html=1;align=center;shadow=0;dashed=0;spacingTop=3;image=img/lib/active_directory/active_directory.svg;" parent="jePzmlh3RAr5rvSsIHxn-4" vertex="1">
          <mxGeometry x="80" y="49.5" width="25" height="21.25" as="geometry" />
        </mxCell>
        <mxCell id="jePzmlh3RAr5rvSsIHxn-41" value="&lt;br&gt;&lt;br&gt;&lt;br&gt;&lt;br&gt;&lt;br&gt;&lt;br&gt;&lt;br&gt;&lt;br&gt;&lt;br&gt;&lt;br&gt;&lt;br&gt;&lt;br&gt;&lt;br&gt;&lt;br&gt;&lt;br&gt;&lt;br&gt;&lt;br&gt;&lt;br&gt;&lt;br&gt;&lt;br&gt;&lt;br&gt;&lt;br&gt;&lt;br&gt;&lt;br&gt;&lt;br&gt;&lt;br&gt;&lt;br&gt;&lt;br&gt;&lt;br&gt;&lt;br&gt;&lt;br&gt;&lt;br&gt;&lt;br&gt;&lt;br&gt;&lt;br&gt;&lt;br&gt;&lt;br&gt;&lt;br&gt;" style="sketch=0;points=[[0,0,0],[0.25,0,0],[0.5,0,0],[0.75,0,0],[1,0,0],[0,1,0],[0.25,1,0],[0.5,1,0],[0.75,1,0],[1,1,0],[0,0.25,0],[0,0.5,0],[0,0.75,0],[1,0.25,0],[1,0.5,0],[1,0.75,0]];outlineConnect=0;fontColor=#232F3E;gradientColor=#60A337;gradientDirection=north;fillColor=#277116;strokeColor=#ffffff;dashed=0;verticalLabelPosition=bottom;verticalAlign=top;align=center;html=1;fontSize=12;fontStyle=0;aspect=fixed;shape=mxgraph.aws4.resourceIcon;resIcon=mxgraph.aws4.cloudendure_disaster_recovery;" parent="jePzmlh3RAr5rvSsIHxn-4" vertex="1">
          <mxGeometry x="120" y="49.5" width="20" height="20" as="geometry" />
        </mxCell>
        <mxCell id="jePzmlh3RAr5rvSsIHxn-48" value="" style="rounded=0;orthogonalLoop=1;jettySize=auto;html=1;startArrow=classic;startFill=1;" parent="jePzmlh3RAr5rvSsIHxn-4" source="jePzmlh3RAr5rvSsIHxn-15" target="jePzmlh3RAr5rvSsIHxn-41" edge="1">
          <mxGeometry relative="1" as="geometry">
            <mxPoint x="299" y="362" as="sourcePoint" />
            <mxPoint x="187" y="231" as="targetPoint" />
          </mxGeometry>
        </mxCell>
        <mxCell id="jePzmlh3RAr5rvSsIHxn-49" value="&lt;br&gt;&lt;br&gt;&lt;br&gt;&lt;br&gt;&lt;br&gt;&lt;br&gt;&lt;br&gt;&lt;br&gt;&lt;br&gt;&lt;br&gt;&lt;br&gt;&lt;br&gt;&lt;br&gt;&lt;br&gt;&lt;br&gt;&lt;br&gt;&lt;br&gt;&lt;br&gt;&lt;br&gt;&lt;br&gt;&lt;br&gt;&lt;br&gt;&lt;br&gt;&lt;br&gt;&lt;br&gt;&lt;br&gt;&lt;br&gt;&lt;br&gt;&lt;br&gt;&lt;br&gt;&lt;br&gt;&lt;br&gt;&lt;br&gt;&lt;br&gt;&lt;br&gt;&lt;br&gt;&lt;br&gt;&lt;br&gt;" style="sketch=0;points=[[0,0,0],[0.25,0,0],[0.5,0,0],[0.75,0,0],[1,0,0],[0,1,0],[0.25,1,0],[0.5,1,0],[0.75,1,0],[1,1,0],[0,0.25,0],[0,0.5,0],[0,0.75,0],[1,0.25,0],[1,0.5,0],[1,0.75,0]];outlineConnect=0;fontColor=#232F3E;gradientColor=#60A337;gradientDirection=north;fillColor=#277116;strokeColor=#ffffff;dashed=0;verticalLabelPosition=bottom;verticalAlign=top;align=center;html=1;fontSize=12;fontStyle=0;aspect=fixed;shape=mxgraph.aws4.resourceIcon;resIcon=mxgraph.aws4.cloudendure_disaster_recovery;" parent="jePzmlh3RAr5rvSsIHxn-4" vertex="1">
          <mxGeometry x="355" y="57.25" width="20" height="20" as="geometry" />
        </mxCell>
        <mxCell id="jePzmlh3RAr5rvSsIHxn-27" value="AWS Cloud" style="sketch=0;outlineConnect=0;gradientColor=none;html=1;whiteSpace=wrap;fontSize=12;fontStyle=0;shape=mxgraph.aws4.group;grIcon=mxgraph.aws4.group_aws_cloud;strokeColor=#AAB7B8;fillColor=none;verticalAlign=top;align=left;spacingLeft=30;fontColor=#AAB7B8;dashed=0;" parent="1" vertex="1">
          <mxGeometry x="730" y="-190" width="1320" height="710" as="geometry" />
        </mxCell>
        <mxCell id="jePzmlh3RAr5rvSsIHxn-28" value="AWS Account - &lt;b&gt;TARGET account&lt;/b&gt;" style="points=[[0,0],[0.25,0],[0.5,0],[0.75,0],[1,0],[1,0.25],[1,0.5],[1,0.75],[1,1],[0.75,1],[0.5,1],[0.25,1],[0,1],[0,0.75],[0,0.5],[0,0.25]];outlineConnect=0;gradientColor=none;html=1;whiteSpace=wrap;fontSize=12;fontStyle=0;container=1;pointerEvents=0;collapsible=0;recursiveResize=0;shape=mxgraph.aws4.group;grIcon=mxgraph.aws4.group_account;strokeColor=#CD2264;fillColor=none;verticalAlign=top;align=left;spacingLeft=30;fontColor=#CD2264;dashed=0;" parent="1" vertex="1">
          <mxGeometry x="770" y="-140" width="1250" height="640" as="geometry" />
        </mxCell>
        <mxCell id="jePzmlh3RAr5rvSsIHxn-29" value="VPC" style="points=[[0,0],[0.25,0],[0.5,0],[0.75,0],[1,0],[1,0.25],[1,0.5],[1,0.75],[1,1],[0.75,1],[0.5,1],[0.25,1],[0,1],[0,0.75],[0,0.5],[0,0.25]];outlineConnect=0;gradientColor=none;html=1;whiteSpace=wrap;fontSize=12;fontStyle=0;container=1;pointerEvents=0;collapsible=0;recursiveResize=0;shape=mxgraph.aws4.group;grIcon=mxgraph.aws4.group_vpc;strokeColor=#248814;fillColor=none;verticalAlign=top;align=left;spacingLeft=30;fontColor=#AAB7B8;dashed=0;" parent="jePzmlh3RAr5rvSsIHxn-28" vertex="1">
          <mxGeometry x="15" y="216" width="980" height="388" as="geometry" />
        </mxCell>
        <mxCell id="jePzmlh3RAr5rvSsIHxn-57" value="Recovery Area Subnet" style="points=[[0,0],[0.25,0],[0.5,0],[0.75,0],[1,0],[1,0.25],[1,0.5],[1,0.75],[1,1],[0.75,1],[0.5,1],[0.25,1],[0,1],[0,0.75],[0,0.5],[0,0.25]];outlineConnect=0;gradientColor=none;html=1;whiteSpace=wrap;fontSize=12;fontStyle=0;container=1;pointerEvents=0;collapsible=0;recursiveResize=0;shape=mxgraph.aws4.group;grIcon=mxgraph.aws4.group_security_group;grStroke=0;strokeColor=#248814;fillColor=default;verticalAlign=top;align=left;spacingLeft=30;fontColor=#248814;dashed=0;strokeWidth=2;" parent="jePzmlh3RAr5rvSsIHxn-29" vertex="1">
          <mxGeometry x="560" y="26.62" width="390" height="333.38" as="geometry" />
        </mxCell>
        <mxCell id="jePzmlh3RAr5rvSsIHxn-30" style="edgeStyle=orthogonalEdgeStyle;rounded=0;orthogonalLoop=1;jettySize=auto;html=1;startArrow=classic;startFill=1;" parent="jePzmlh3RAr5rvSsIHxn-29" source="jePzmlh3RAr5rvSsIHxn-58" target="jePzmlh3RAr5rvSsIHxn-31" edge="1">
          <mxGeometry relative="1" as="geometry">
            <mxPoint x="669.9997231818584" y="112.59999999999991" as="sourcePoint" />
          </mxGeometry>
        </mxCell>
        <mxCell id="jePzmlh3RAr5rvSsIHxn-31" value="SQLServer.myprivatedomain.aws&lt;br&gt;database" style="outlineConnect=0;dashed=0;verticalLabelPosition=bottom;verticalAlign=top;align=center;html=1;shape=mxgraph.aws3.generic_database;fillColor=#7D7C7C;gradientColor=none;" parent="jePzmlh3RAr5rvSsIHxn-29" vertex="1">
          <mxGeometry x="806" y="80" width="49.5" height="64.5" as="geometry" />
        </mxCell>
        <mxCell id="jePzmlh3RAr5rvSsIHxn-32" value="" style="group" parent="jePzmlh3RAr5rvSsIHxn-29" vertex="1" connectable="0">
          <mxGeometry x="650" y="243.25" width="185" height="52" as="geometry" />
        </mxCell>
        <mxCell id="jePzmlh3RAr5rvSsIHxn-33" value="" style="sketch=0;pointerEvents=1;shadow=0;dashed=0;html=1;strokeColor=none;fillColor=#505050;labelPosition=center;verticalLabelPosition=bottom;verticalAlign=top;outlineConnect=0;align=center;shape=mxgraph.office.servers.server_generic;flipH=0;" parent="jePzmlh3RAr5rvSsIHxn-32" vertex="1">
          <mxGeometry width="27" height="52" as="geometry" />
        </mxCell>
        <mxCell id="jePzmlh3RAr5rvSsIHxn-34" value="Application Servers, clients, etc" style="sketch=0;pointerEvents=1;shadow=0;dashed=0;html=1;strokeColor=none;fillColor=#505050;labelPosition=center;verticalLabelPosition=bottom;verticalAlign=top;outlineConnect=0;align=center;shape=mxgraph.office.servers.server_generic;flipH=0;" parent="jePzmlh3RAr5rvSsIHxn-32" vertex="1">
          <mxGeometry x="79" width="27" height="52" as="geometry" />
        </mxCell>
        <mxCell id="jePzmlh3RAr5rvSsIHxn-35" value="" style="sketch=0;pointerEvents=1;shadow=0;dashed=0;html=1;strokeColor=none;fillColor=#505050;labelPosition=center;verticalLabelPosition=bottom;verticalAlign=top;outlineConnect=0;align=center;shape=mxgraph.office.servers.server_generic;flipH=0;" parent="jePzmlh3RAr5rvSsIHxn-32" vertex="1">
          <mxGeometry x="158" width="27" height="52" as="geometry" />
        </mxCell>
        <mxCell id="jePzmlh3RAr5rvSsIHxn-39" style="rounded=0;orthogonalLoop=1;jettySize=auto;html=1;startArrow=classic;startFill=1;" parent="jePzmlh3RAr5rvSsIHxn-29" source="jePzmlh3RAr5rvSsIHxn-34" target="jePzmlh3RAr5rvSsIHxn-31" edge="1">
          <mxGeometry relative="1" as="geometry">
            <mxPoint x="780" y="291.25" as="sourcePoint" />
          </mxGeometry>
        </mxCell>
        <mxCell id="jePzmlh3RAr5rvSsIHxn-40" style="rounded=0;orthogonalLoop=1;jettySize=auto;html=1;startArrow=classic;startFill=1;" parent="jePzmlh3RAr5rvSsIHxn-29" source="jePzmlh3RAr5rvSsIHxn-34" target="jePzmlh3RAr5rvSsIHxn-58" edge="1">
          <mxGeometry relative="1" as="geometry">
            <mxPoint x="781" y="301.25" as="sourcePoint" />
            <mxPoint x="637" y="125.62815126050418" as="targetPoint" />
          </mxGeometry>
        </mxCell>
        <mxCell id="jePzmlh3RAr5rvSsIHxn-56" value="Staging Area Subnet" style="points=[[0,0],[0.25,0],[0.5,0],[0.75,0],[1,0],[1,0.25],[1,0.5],[1,0.75],[1,1],[0.75,1],[0.5,1],[0.25,1],[0,1],[0,0.75],[0,0.5],[0,0.25]];outlineConnect=0;gradientColor=none;html=1;whiteSpace=wrap;fontSize=12;fontStyle=0;container=1;pointerEvents=0;collapsible=0;recursiveResize=0;shape=mxgraph.aws4.group;grIcon=mxgraph.aws4.group_security_group;grStroke=0;strokeColor=#248814;fillColor=default;verticalAlign=top;align=left;spacingLeft=30;fontColor=#248814;strokeWidth=1;" parent="jePzmlh3RAr5rvSsIHxn-29" vertex="1">
          <mxGeometry x="20" y="30" width="320" height="330" as="geometry" />
        </mxCell>
        <mxCell id="jePzmlh3RAr5rvSsIHxn-66" style="edgeStyle=orthogonalEdgeStyle;rounded=0;orthogonalLoop=1;jettySize=auto;html=1;entryX=1;entryY=0.5;entryDx=0;entryDy=0;entryPerimeter=0;endArrow=none;endFill=0;" parent="jePzmlh3RAr5rvSsIHxn-56" source="jePzmlh3RAr5rvSsIHxn-59" target="jePzmlh3RAr5rvSsIHxn-63" edge="1">
          <mxGeometry relative="1" as="geometry" />
        </mxCell>
        <mxCell id="jePzmlh3RAr5rvSsIHxn-68" style="edgeStyle=orthogonalEdgeStyle;rounded=0;orthogonalLoop=1;jettySize=auto;html=1;entryX=0;entryY=0.5;entryDx=0;entryDy=0;entryPerimeter=0;" parent="jePzmlh3RAr5rvSsIHxn-56" source="jePzmlh3RAr5rvSsIHxn-59" target="jePzmlh3RAr5rvSsIHxn-62" edge="1">
          <mxGeometry relative="1" as="geometry" />
        </mxCell>
        <mxCell id="jePzmlh3RAr5rvSsIHxn-69" style="edgeStyle=orthogonalEdgeStyle;rounded=0;orthogonalLoop=1;jettySize=auto;html=1;entryX=1;entryY=0.5;entryDx=0;entryDy=0;entryPerimeter=0;" parent="jePzmlh3RAr5rvSsIHxn-56" source="jePzmlh3RAr5rvSsIHxn-59" target="jePzmlh3RAr5rvSsIHxn-61" edge="1">
          <mxGeometry relative="1" as="geometry" />
        </mxCell>
        <mxCell id="jePzmlh3RAr5rvSsIHxn-70" style="edgeStyle=orthogonalEdgeStyle;rounded=0;orthogonalLoop=1;jettySize=auto;html=1;entryX=1;entryY=0.5;entryDx=0;entryDy=0;entryPerimeter=0;" parent="jePzmlh3RAr5rvSsIHxn-56" source="jePzmlh3RAr5rvSsIHxn-59" target="jePzmlh3RAr5rvSsIHxn-64" edge="1">
          <mxGeometry relative="1" as="geometry" />
        </mxCell>
        <mxCell id="jePzmlh3RAr5rvSsIHxn-59" value="Replication Servers" style="sketch=0;points=[[0,0,0],[0.25,0,0],[0.5,0,0],[0.75,0,0],[1,0,0],[0,1,0],[0.25,1,0],[0.5,1,0],[0.75,1,0],[1,1,0],[0,0.25,0],[0,0.5,0],[0,0.75,0],[1,0.25,0],[1,0.5,0],[1,0.75,0]];outlineConnect=0;fontColor=#232F3E;gradientColor=#F78E04;gradientDirection=north;fillColor=#D05C17;strokeColor=#ffffff;dashed=0;verticalLabelPosition=bottom;verticalAlign=top;align=center;html=1;fontSize=12;fontStyle=0;aspect=fixed;shape=mxgraph.aws4.resourceIcon;resIcon=mxgraph.aws4.ec2;" parent="jePzmlh3RAr5rvSsIHxn-56" vertex="1">
          <mxGeometry x="80" y="117.5" width="45" height="45" as="geometry" />
        </mxCell>
        <mxCell id="jePzmlh3RAr5rvSsIHxn-60" value="" style="outlineConnect=0;dashed=0;verticalLabelPosition=bottom;verticalAlign=top;align=center;html=1;shape=mxgraph.aws3.volume;fillColor=#E05243;gradientColor=none;flipV=1;direction=west;" parent="jePzmlh3RAr5rvSsIHxn-56" vertex="1">
          <mxGeometry x="230" y="20" width="28" height="40" as="geometry" />
        </mxCell>
        <mxCell id="jePzmlh3RAr5rvSsIHxn-61" value="" style="outlineConnect=0;dashed=0;verticalLabelPosition=bottom;verticalAlign=top;align=center;html=1;shape=mxgraph.aws3.volume;fillColor=#E05243;gradientColor=none;flipV=1;direction=west;" parent="jePzmlh3RAr5rvSsIHxn-56" vertex="1">
          <mxGeometry x="230" y="70" width="28" height="40" as="geometry" />
        </mxCell>
        <mxCell id="jePzmlh3RAr5rvSsIHxn-62" value="" style="outlineConnect=0;dashed=0;verticalLabelPosition=bottom;verticalAlign=top;align=center;html=1;shape=mxgraph.aws3.volume;fillColor=#E05243;gradientColor=none;" parent="jePzmlh3RAr5rvSsIHxn-56" vertex="1">
          <mxGeometry x="230" y="220" width="28" height="40" as="geometry" />
        </mxCell>
        <mxCell id="jePzmlh3RAr5rvSsIHxn-63" value="" style="outlineConnect=0;dashed=0;verticalLabelPosition=bottom;verticalAlign=top;align=center;html=1;shape=mxgraph.aws3.volume;fillColor=#E05243;gradientColor=none;flipV=1;direction=west;" parent="jePzmlh3RAr5rvSsIHxn-56" vertex="1">
          <mxGeometry x="230" y="120" width="28" height="40" as="geometry" />
        </mxCell>
        <mxCell id="jePzmlh3RAr5rvSsIHxn-64" value="" style="outlineConnect=0;dashed=0;verticalLabelPosition=bottom;verticalAlign=top;align=center;html=1;shape=mxgraph.aws3.volume;fillColor=#E05243;gradientColor=none;flipV=1;direction=west;" parent="jePzmlh3RAr5rvSsIHxn-56" vertex="1">
          <mxGeometry x="230" y="170" width="28" height="40" as="geometry" />
        </mxCell>
        <mxCell id="jePzmlh3RAr5rvSsIHxn-67" style="edgeStyle=orthogonalEdgeStyle;rounded=0;orthogonalLoop=1;jettySize=auto;html=1;entryX=1;entryY=0.5;entryDx=0;entryDy=0;entryPerimeter=0;endArrow=none;endFill=0;exitX=1;exitY=0.5;exitDx=0;exitDy=0;exitPerimeter=0;" parent="jePzmlh3RAr5rvSsIHxn-56" source="jePzmlh3RAr5rvSsIHxn-59" target="jePzmlh3RAr5rvSsIHxn-60" edge="1">
          <mxGeometry relative="1" as="geometry">
            <mxPoint x="135" y="150" as="sourcePoint" />
            <mxPoint x="240" y="150" as="targetPoint" />
          </mxGeometry>
        </mxCell>
        <mxCell id="jePzmlh3RAr5rvSsIHxn-58" value="AD.myprivatedomain.aws&lt;br&gt;AD services/DNS" style="sketch=0;pointerEvents=1;shadow=0;dashed=0;html=1;strokeColor=none;fillColor=#505050;labelPosition=center;verticalLabelPosition=bottom;verticalAlign=top;outlineConnect=0;align=center;shape=mxgraph.office.servers.server_generic;" parent="jePzmlh3RAr5rvSsIHxn-29" vertex="1">
          <mxGeometry x="630" y="76.62" width="37" height="71.26" as="geometry" />
        </mxCell>
        <mxCell id="hpy0sO3We4fIstVWHFmX-1" value="DRS control plane" style="sketch=0;points=[[0,0,0],[0.25,0,0],[0.5,0,0],[0.75,0,0],[1,0,0],[0,1,0],[0.25,1,0],[0.5,1,0],[0.75,1,0],[1,1,0],[0,0.25,0],[0,0.5,0],[0,0.75,0],[1,0.25,0],[1,0.5,0],[1,0.75,0]];outlineConnect=0;fontColor=#232F3E;gradientColor=#60A337;gradientDirection=north;fillColor=#277116;strokeColor=#ffffff;dashed=0;verticalLabelPosition=bottom;verticalAlign=top;align=center;html=1;fontSize=12;fontStyle=0;aspect=fixed;shape=mxgraph.aws4.resourceIcon;resIcon=mxgraph.aws4.cloudendure_disaster_recovery;" parent="jePzmlh3RAr5rvSsIHxn-28" vertex="1">
          <mxGeometry x="435.5" y="50" width="78" height="78" as="geometry" />
        </mxCell>
        <mxCell id="hpy0sO3We4fIstVWHFmX-6" style="edgeStyle=orthogonalEdgeStyle;rounded=0;orthogonalLoop=1;jettySize=auto;html=1;entryX=0;entryY=0.5;entryDx=0;entryDy=0;entryPerimeter=0;startArrow=classic;startFill=1;dashed=1;" parent="jePzmlh3RAr5rvSsIHxn-28" source="jePzmlh3RAr5rvSsIHxn-59" target="hpy0sO3We4fIstVWHFmX-1" edge="1">
          <mxGeometry relative="1" as="geometry">
            <Array as="points">
              <mxPoint x="140" y="90" />
              <mxPoint x="436" y="90" />
            </Array>
          </mxGeometry>
        </mxCell>
        <mxCell id="hpy0sO3We4fIstVWHFmX-11" style="edgeStyle=orthogonalEdgeStyle;rounded=0;orthogonalLoop=1;jettySize=auto;html=1;strokeColor=default;startArrow=classic;startFill=1;" parent="jePzmlh3RAr5rvSsIHxn-28" source="hpy0sO3We4fIstVWHFmX-9" target="hpy0sO3We4fIstVWHFmX-10" edge="1">
          <mxGeometry relative="1" as="geometry" />
        </mxCell>
        <mxCell id="hpy0sO3We4fIstVWHFmX-9" value="orchestrator" style="sketch=0;points=[[0,0,0],[0.25,0,0],[0.5,0,0],[0.75,0,0],[1,0,0],[0,1,0],[0.25,1,0],[0.5,1,0],[0.75,1,0],[1,1,0],[0,0.25,0],[0,0.5,0],[0,0.75,0],[1,0.25,0],[1,0.5,0],[1,0.75,0]];outlineConnect=0;fontColor=#232F3E;gradientColor=#FF4F8B;gradientDirection=north;fillColor=#BC1356;strokeColor=#ffffff;dashed=0;verticalLabelPosition=bottom;verticalAlign=top;align=center;html=1;fontSize=12;fontStyle=0;aspect=fixed;shape=mxgraph.aws4.resourceIcon;resIcon=mxgraph.aws4.step_functions;" parent="jePzmlh3RAr5rvSsIHxn-28" vertex="1">
          <mxGeometry x="800" y="50" width="78" height="78" as="geometry" />
        </mxCell>
        <mxCell id="hpy0sO3We4fIstVWHFmX-12" style="edgeStyle=orthogonalEdgeStyle;rounded=0;orthogonalLoop=1;jettySize=auto;html=1;entryX=1;entryY=0.5;entryDx=0;entryDy=0;entryPerimeter=0;startArrow=classic;startFill=1;" parent="jePzmlh3RAr5rvSsIHxn-28" source="hpy0sO3We4fIstVWHFmX-10" target="hpy0sO3We4fIstVWHFmX-1" edge="1">
          <mxGeometry relative="1" as="geometry" />
        </mxCell>
        <mxCell id="hpy0sO3We4fIstVWHFmX-10" value="orchestrator lambda" style="sketch=0;points=[[0,0,0],[0.25,0,0],[0.5,0,0],[0.75,0,0],[1,0,0],[0,1,0],[0.25,1,0],[0.5,1,0],[0.75,1,0],[1,1,0],[0,0.25,0],[0,0.5,0],[0,0.75,0],[1,0.25,0],[1,0.5,0],[1,0.75,0]];outlineConnect=0;fontColor=#232F3E;gradientColor=#F78E04;gradientDirection=north;fillColor=#D05C17;strokeColor=#ffffff;dashed=0;verticalLabelPosition=bottom;verticalAlign=top;align=center;html=1;fontSize=12;fontStyle=0;aspect=fixed;shape=mxgraph.aws4.resourceIcon;resIcon=mxgraph.aws4.lambda;" parent="jePzmlh3RAr5rvSsIHxn-28" vertex="1">
          <mxGeometry x="630" y="50" width="78" height="78" as="geometry" />
        </mxCell>
        <mxCell id="WnXMx5-b58vDxwEVwu6A-3" style="edgeStyle=orthogonalEdgeStyle;rounded=0;orthogonalLoop=1;jettySize=auto;html=1;" edge="1" parent="jePzmlh3RAr5rvSsIHxn-28" source="WnXMx5-b58vDxwEVwu6A-1" target="WnXMx5-b58vDxwEVwu6A-2">
          <mxGeometry relative="1" as="geometry" />
        </mxCell>
        <mxCell id="WnXMx5-b58vDxwEVwu6A-1" value="api gateway" style="sketch=0;points=[[0,0,0],[0.25,0,0],[0.5,0,0],[0.75,0,0],[1,0,0],[0,1,0],[0.25,1,0],[0.5,1,0],[0.75,1,0],[1,1,0],[0,0.25,0],[0,0.5,0],[0,0.75,0],[1,0.25,0],[1,0.5,0],[1,0.75,0]];outlineConnect=0;fontColor=#232F3E;fillColor=#8C4FFF;strokeColor=#ffffff;dashed=0;verticalLabelPosition=bottom;verticalAlign=top;align=center;html=1;fontSize=12;fontStyle=0;aspect=fixed;shape=mxgraph.aws4.resourceIcon;resIcon=mxgraph.aws4.api_gateway;" vertex="1" parent="jePzmlh3RAr5rvSsIHxn-28">
          <mxGeometry x="1110" y="50" width="78" height="78" as="geometry" />
        </mxCell>
        <mxCell id="WnXMx5-b58vDxwEVwu6A-4" style="edgeStyle=orthogonalEdgeStyle;rounded=0;orthogonalLoop=1;jettySize=auto;html=1;strokeColor=default;startArrow=classic;startFill=1;" edge="1" parent="jePzmlh3RAr5rvSsIHxn-28" source="WnXMx5-b58vDxwEVwu6A-2" target="hpy0sO3We4fIstVWHFmX-9">
          <mxGeometry relative="1" as="geometry" />
        </mxCell>
        <mxCell id="WnXMx5-b58vDxwEVwu6A-2" value="starter lambda" style="sketch=0;points=[[0,0,0],[0.25,0,0],[0.5,0,0],[0.75,0,0],[1,0,0],[0,1,0],[0.25,1,0],[0.5,1,0],[0.75,1,0],[1,1,0],[0,0.25,0],[0,0.5,0],[0,0.75,0],[1,0.25,0],[1,0.5,0],[1,0.75,0]];outlineConnect=0;fontColor=#232F3E;gradientColor=#F78E04;gradientDirection=north;fillColor=#D05C17;strokeColor=#ffffff;dashed=0;verticalLabelPosition=bottom;verticalAlign=top;align=center;html=1;fontSize=12;fontStyle=0;aspect=fixed;shape=mxgraph.aws4.resourceIcon;resIcon=mxgraph.aws4.lambda;" vertex="1" parent="jePzmlh3RAr5rvSsIHxn-28">
          <mxGeometry x="950" y="50" width="78" height="78" as="geometry" />
        </mxCell>
        <mxCell id="jePzmlh3RAr5rvSsIHxn-52" value="&lt;br&gt;&lt;br&gt;&lt;br&gt;&lt;br&gt;&lt;br&gt;&lt;br&gt;&lt;br&gt;&lt;br&gt;&lt;br&gt;&lt;br&gt;&lt;br&gt;&lt;br&gt;&lt;br&gt;&lt;br&gt;&lt;br&gt;&lt;br&gt;&lt;br&gt;&lt;br&gt;&lt;br&gt;&lt;br&gt;&lt;br&gt;&lt;br&gt;&lt;br&gt;&lt;br&gt;&lt;br&gt;&lt;br&gt;&lt;br&gt;&lt;br&gt;&lt;br&gt;&lt;br&gt;&lt;br&gt;&lt;br&gt;&lt;br&gt;&lt;br&gt;&lt;br&gt;&lt;br&gt;&lt;br&gt;&lt;br&gt;" style="sketch=0;points=[[0,0,0],[0.25,0,0],[0.5,0,0],[0.75,0,0],[1,0,0],[0,1,0],[0.25,1,0],[0.5,1,0],[0.75,1,0],[1,1,0],[0,0.25,0],[0,0.5,0],[0,0.75,0],[1,0.25,0],[1,0.5,0],[1,0.75,0]];outlineConnect=0;fontColor=#232F3E;gradientColor=#60A337;gradientDirection=north;fillColor=#277116;strokeColor=#ffffff;dashed=0;verticalLabelPosition=bottom;verticalAlign=top;align=center;html=1;fontSize=12;fontStyle=0;aspect=fixed;shape=mxgraph.aws4.resourceIcon;resIcon=mxgraph.aws4.cloudendure_disaster_recovery;" parent="1" vertex="1">
          <mxGeometry x="400" y="384" width="20" height="20" as="geometry" />
        </mxCell>
        <mxCell id="jePzmlh3RAr5rvSsIHxn-73" style="edgeStyle=orthogonalEdgeStyle;rounded=0;orthogonalLoop=1;jettySize=auto;html=1;strokeWidth=2;" parent="1" edge="1">
          <mxGeometry relative="1" as="geometry">
            <mxPoint x="510" y="269.58" as="sourcePoint" />
            <mxPoint x="840" y="269.58" as="targetPoint" />
          </mxGeometry>
        </mxCell>
        <mxCell id="hpy0sO3We4fIstVWHFmX-8" style="edgeStyle=orthogonalEdgeStyle;rounded=0;orthogonalLoop=1;jettySize=auto;html=1;" parent="1" source="jePzmlh3RAr5rvSsIHxn-78" edge="1">
          <mxGeometry relative="1" as="geometry">
            <mxPoint x="1340" y="270" as="targetPoint" />
          </mxGeometry>
        </mxCell>
        <mxCell id="jePzmlh3RAr5rvSsIHxn-78" value="Conversion servers" style="sketch=0;points=[[0,0,0],[0.25,0,0],[0.5,0,0],[0.75,0,0],[1,0,0],[0,1,0],[0.25,1,0],[0.5,1,0],[0.75,1,0],[1,1,0],[0,0.25,0],[0,0.5,0],[0,0.75,0],[1,0.25,0],[1,0.5,0],[1,0.75,0]];outlineConnect=0;fontColor=#232F3E;gradientColor=#F78E04;gradientDirection=north;fillColor=#D05C17;strokeColor=#ffffff;dashed=0;verticalLabelPosition=bottom;verticalAlign=top;align=center;html=1;fontSize=12;fontStyle=0;aspect=fixed;shape=mxgraph.aws4.resourceIcon;resIcon=mxgraph.aws4.ec2;" parent="1" vertex="1">
          <mxGeometry x="1214" y="239.5" width="61" height="61" as="geometry" />
        </mxCell>
        <mxCell id="hpy0sO3We4fIstVWHFmX-7" style="edgeStyle=orthogonalEdgeStyle;rounded=0;orthogonalLoop=1;jettySize=auto;html=1;startArrow=classic;startFill=1;dashed=1;exitX=0.5;exitY=0;exitDx=0;exitDy=0;exitPerimeter=0;" parent="1" source="jePzmlh3RAr5rvSsIHxn-78" target="hpy0sO3We4fIstVWHFmX-1" edge="1">
          <mxGeometry relative="1" as="geometry">
            <mxPoint x="920" y="234" as="sourcePoint" />
            <mxPoint x="1260" y="-51" as="targetPoint" />
            <Array as="points" />
          </mxGeometry>
        </mxCell>
      </root>
    </mxGraphModel>
  </diagram>
</mxfile>
